<?xml version="1.0" encoding="UTF-8" standalone="no"?>
<svg
   xmlns:dc="http://purl.org/dc/elements/1.1/"
   xmlns:cc="http://creativecommons.org/ns#"
   xmlns:rdf="http://www.w3.org/1999/02/22-rdf-syntax-ns#"
   xmlns:svg="http://www.w3.org/2000/svg"
   xmlns="http://www.w3.org/2000/svg"
   xmlns:sodipodi="http://sodipodi.sourceforge.net/DTD/sodipodi-0.dtd"
   xmlns:inkscape="http://www.inkscape.org/namespaces/inkscape"
   aria-hidden="true"
   data-prefix="fas"
   data-icon="bell"
   class="svg-inline--fa fa-bell fa-w-14"
   role="img"
   viewBox="0 0 512 512"
   id="svg2"
   version="1.1"
   inkscape:version="0.91 r13725"
   sodipodi:docname="icon.svg"
   width="512"
   height="512"
   inkscape:export-filename="/Users/shiori/Desktop/logo.png"
   inkscape:export-xdpi="90"
   inkscape:export-ydpi="90">
  <metadata
     id="metadata10">
    <rdf:RDF>
      <cc:Work
         rdf:about="">
        <dc:format>image/svg+xml</dc:format>
        <dc:type
           rdf:resource="http://purl.org/dc/dcmitype/StillImage" />
        <dc:title></dc:title>
      </cc:Work>
    </rdf:RDF>
  </metadata>
  <defs
     id="defs8" />
  <sodipodi:namedview
     pagecolor="#ffffff"
     bordercolor="#666666"
     borderopacity="1"
     objecttolerance="10"
     gridtolerance="10"
     guidetolerance="10"
     inkscape:pageopacity="0"
     inkscape:pageshadow="2"
     inkscape:window-width="1440"
     inkscape:window-height="775"
     id="namedview6"
     showgrid="false"
     borderlayer="true"
     inkscape:showpageshadow="false"
     inkscape:zoom="0.921875"
     inkscape:cx="316.04373"
     inkscape:cy="270.88904"
     inkscape:window-x="0"
     inkscape:window-y="1"
     inkscape:window-maximized="1"
     inkscape:current-layer="svg2" />
  <rect
     style="fill:#42b983;fill-opacity:1;stroke:none;stroke-width:30;stroke-miterlimit:4;stroke-dasharray:none"
     id="rect4138"
     width="512"
     height="512"
     x="0"
     y="0"
     ry="33.627102" />
  <g
     transform="matrix(4.6867746,0,0,4.6867746,1649.3117,-2001.5358)"
     style="font-style:normal;font-variant:normal;font-weight:600;font-stretch:normal;font-size:40px;line-height:125%;font-family:'Hiragino Sans';-inkscape-font-specification:'Hiragino Sans Semi-Bold';letter-spacing:8.32000065px;word-spacing:0px;fill:#ffffff;fill-opacity:1;stroke:none;stroke-width:1px;stroke-linecap:butt;stroke-linejoin:miter;stroke-opacity:1"
     id="flowRoot4140">
    <path
       d="m -269.06316,505.03718 c -6.66829,1.84902 -10.89614,2.56653 -22.59614,2.56653 -14.67,0 -18.54,-1.89 -19.26,-9.45 -0.18,-1.8 -0.45,-10.3298 -0.45,-15.0098 l 0,-1.89 c 0.09,-4.77 0.09,-4.77 0.09,-5.22 l 0,-2.43 c 12.51,-0.72 12.51,-0.72 26.19,-1.26 -0.09,5.04 -0.35601,8.64069 -0.81,11.25 -0.23979,1.37816 -0.79354,3.04342 -1.41513,5.00732 3.22013,0.54591 6.27834,1.4063 10.14513,2.55268 1.44,-3.24 2.25,-9.99 2.34,-19.08 4.23,0 9.36,-0.09 12.51,-0.09 2.25,0 3.06,0 5.13,0.27 l -0.18,-10.71 c -2.97,0.36 -2.97,0.36 -17.46,0.81 l 0,-0.99 0,-1.89 0,-2.7 0,-5.67 c 0,-2.25 0.09,-3.33 0.45,-6.21 l -11.25,0 c 0.54,3.51 0.54,3.51 0.54,17.82 -13.41,0.63 -13.41,0.63 -26.01,1.26 0.27,-14.22 0.27,-14.22 0.81,-17.55 l -12.06,0 c 0.54,3.24 0.63,5.76 0.63,15.3 0,0.54 0,1.35 -0.09,2.79 -8.91,0.54 -13.86,0.81 -14.67,0.81 -0.45,0 -1.35,0 -2.61,-0.09 l 0.72,10.53 c 4.05,-0.72 4.05,-0.72 16.65,-1.62 -0.09,7.02 -0.09,7.38 -0.09,8.73 0,15.48 0.36,19.2398 1.62,23.2898 2.7,8.64 9.99,11.88 26.82,11.88 5.94,0 17.82,-0.63 24.39,-1.35 0.003,-2.49274 -0.31515,-7.3866 -0.0839,-11.65653 z"
       style="font-style:normal;font-variant:normal;font-weight:600;font-stretch:normal;font-size:90px;font-family:'Hiragino Sans';-inkscape-font-specification:'Hiragino Sans Semi-Bold';letter-spacing:8.32000065px;fill:#ffffff"
       id="path4190"
       inkscape:connector-curvature="0"
       sodipodi:nodetypes="cscscsccscccsccccccsccccccscscccscscc" />
  </g>
</svg>
